<?xml version="1.0" encoding="UTF-8"?><svg id="Layer_1" xmlns="http://www.w3.org/2000/svg" viewBox="0 0 46 46"><defs><style>.cls-1{fill:#002eff;}</style></defs><path class="cls-1" d="m32.9,24.886l-5.235,1.161c-.674.149-1.207.682-1.357,1.355l-1.224,5.492c-.143.642.077,1.308.573,1.739.331.287.747.438,1.17.438.21,0,.422-.038.626-.114,3.551-1.335,6.293-4.158,7.525-7.746.212-.62.079-1.282-.358-1.771-.437-.488-1.078-.696-1.72-.555Zm.659,1.84c-1.085,3.163-3.503,5.651-6.633,6.828-.137.052-.236-.011-.285-.052-.049-.043-.125-.136-.093-.281l1.224-5.492c.024-.108.109-.193.218-.217l5.235-1.161c.024-.006.046-.008.068-.008.104,0,.174.058.209.097.042.048.105.147.058.286Zm-13.867.677c-.15-.674-.683-1.206-1.356-1.355l-5.236-1.161h0c-.642-.144-1.284.065-1.719.555-.437.489-.57,1.151-.357,1.771,1.231,3.588,3.974,6.411,7.525,7.746.204.076.415.114.625.114.423,0,.839-.151,1.17-.438.497-.432.716-1.098.573-1.739l-1.224-5.492Zm-.333,6.1c-.047.042-.146.104-.284.052-3.13-1.177-5.548-3.665-6.633-6.828-.048-.14.016-.238.058-.286.035-.039.104-.097.209-.097.021,0,.043.002.066.008l5.236,1.161c.108.023.193.108.217.217l1.224,5.492c.032.146-.044.238-.093.281Zm-8.374-14.404c-.077.229-.038.481.104.678.141.194.367.31.607.31h.003c2.26-.012,6.795-.008,11.301-.004,3.638-.004,7.296-.006,9.76,0h.002c.622,0,1.19-.315,1.521-.846.324-.519.358-1.153.091-1.698-2.145-4.38-6.504-7.101-11.376-7.101-5.461,0-10.29,3.481-12.015,8.662Zm22.044-.901c.049.101.018.188-.017.244-.026.042-.103.14-.249.14h0c-2.466-.006-6.125-.003-9.763,0-3.867-.004-7.754-.006-10.21,0,1.772-4.015,5.751-6.646,10.209-6.646,4.295,0,8.138,2.398,10.029,6.261Zm-20.927-5.994c-3.043,3.043-4.643,7.092-4.505,11.4.258,8.098,6.803,14.643,14.899,14.901.171.005.342.008.512.008,4.117,0,7.968-1.592,10.89-4.515,3.043-3.043,4.644-7.092,4.506-11.401-.258-8.097-6.803-14.642-14.9-14.9-4.325-.109-8.359,1.464-11.402,4.507Zm24.803,10.441c.124,3.891-1.32,7.546-4.067,10.293-2.748,2.748-6.411,4.193-10.293,4.067-7.308-.233-13.215-6.141-13.448-13.449-.124-3.89,1.32-7.545,4.067-10.292,2.638-2.639,6.114-4.075,9.831-4.075.154,0,.308.003.462.008,7.308.233,13.215,6.141,13.449,13.448Zm-3.599-15.935l1.862-3.224c-.423-.265-.854-.518-1.296-.755l-1.86,3.222c.07.037.143.069.212.107.372.201.726.428,1.082.651Zm-3.616-5.717c-.477-.145-.961-.271-1.45-.385l-.962,3.592c.49.111.978.227,1.453.375l.96-3.581Zm-15.701,4.959l-1.86-3.222c-.441.237-.872.491-1.296.755l1.865,3.229c.422-.268.848-.528,1.291-.763Zm9.762-2.208V.019c-.25-.008-.498-.019-.75-.019s-.5.011-.75.019v3.723c.251-.01.497-.038.75-.038s.499.028.75.038Zm-5.027.456l-.962-3.592c-.489.114-.974.24-1.45.385l.96,3.581c.475-.148.963-.263,1.453-.375Zm19.974,1.998l-1.081,1.081c4.223,3.928,6.884,9.514,6.884,15.723,0,11.855-9.645,21.5-21.5,21.5S1.5,34.855,1.5,23c0-6.209,2.661-11.794,6.884-15.723l-1.081-1.081C2.811,10.394,0,16.367,0,23c0,12.703,10.297,23,23,23s23-10.297,23-23c0-6.633-2.812-12.606-7.303-16.804Z"/></svg>