<?xml version="1.0" encoding="UTF-8"?><svg id="artwork" xmlns="http://www.w3.org/2000/svg" viewBox="0 0 45.907 46"><defs><style>.cls-1{fill:#002eff;}</style></defs><path class="cls-1" d="m18.898,12.106l6.23.021,1.492-1.483v-.013s-6.266-.021-6.266-.021l-1.456,1.447v.048Zm4.983,22.996c.002-.62-.499-1.124-1.118-1.126s-1.124.499-1.126,1.118c-.002.62.499,1.124,1.118,1.125.62.002,1.124-.499,1.126-1.118Zm8.921-13.235l.042-13.06c.002-.451-.173-.876-.491-1.196-.317-.319-.741-.496-1.19-.497l-16.743-.055h-.003c-.928,0-1.686.754-1.689,1.683l-.095,29.233c-.002.93.752,1.688,1.682,1.692l9.109.029,1.505-1.495-10.608-.034c-.104,0-.188-.085-.188-.188l.095-29.232c0-.104.085-.188.188-.188h0l16.743.055c.063,0,.106.03.131.055.025.025.055.068.055.134l-.046,14.56,1.505-1.495Zm7.73-2.249c-1.024-1.03-2.7-1.036-3.729-.012l-.618.614c-.309.306-.534.686-.658,1.102-.417.122-.797.345-1.105.65l-.618.614c-.309.307-.533.687-.658,1.102-.417.123-.798.345-1.105.651l-.618.614c-.198.196-.36.42-.485.661l-4.919-4.95c-.478-.481-1.114-.747-1.792-.749h-.009c-.674,0-1.31.262-1.788.737l-.248.245c-.48.479-.747,1.115-.749,1.793-.002.678.26,1.315.737,1.796l2.545,2.562-6.266-.02c-.121,0-.219-.099-.219-.22l.028-8.593c0-.075.035-.126.065-.155.029-.029.092-.046.155-.063l8.595.028c.074,0,.124.035.153.064s.063.08.063.154l-.006,1.93,1.495,1.505.011-3.429c.002-.46-.176-.893-.5-1.218-.324-.326-.755-.506-1.213-.507l-8.593-.028c-.463.042-.892.176-1.218.499-.325.324-.506.755-.507,1.215l-.028,8.594c-.002.947.766,1.72,1.713,1.724l7.766.025,6.143,6.184-1.986-.007h-.011c-1.97,0-3.575,1.599-3.581,3.569l-.004,1.408,9.694.031c-3.684,2.975-8.368,4.76-13.464,4.76-11.855,0-21.5-9.645-21.5-21.5S11.145,1.5,23,1.5c10.477,0,19.215,7.537,21.108,17.47l1.781,1.781C44.759,9.104,34.944,0,23,0,10.297,0,0,10.297,0,23s10.297,23,23,23c12.024,0,21.887-9.229,22.907-20.988l-5.375-5.393Zm-2.412,18.627l-9.844-.032c.052-1.102.965-1.981,2.079-1.981h.006l5.608.019-12.737-12.82c-.195-.196-.302-.457-.302-.734,0-.276.11-.537.306-.732l.248-.245c.196-.195.456-.302.732-.302h.003c.277,0,.537.109.732.306l5.887,5.925,2.257-2.242c.246-.244.535-.31.734-.321l.66-.04.043-.659c.014-.199.081-.488.326-.732l.618-.614c.246-.243.535-.309.734-.32l.66-.04.043-.659c.014-.2.081-.489.326-.732l.618-.614c.445-.441,1.167-.439,1.61.006l4.85,4.869c-.586,4.938-2.847,9.365-6.2,12.699Z"/></svg>