<?xml version="1.0" encoding="UTF-8"?><svg id="artwork" xmlns="http://www.w3.org/2000/svg" viewBox="0 0 46 46"><defs><style>.cls-1{fill:#002eff;}</style></defs><path class="cls-1" d="m23,0c-2.484,0-4.874.399-7.115,1.127l1.055,1.257c1.924-.567,3.955-.884,6.06-.884,11.429,0,20.776,8.97,21.436,20.236l-8.682-.052h-.019c-.521,0-1.033.142-1.481.41l-6.919,4.149c-.218.13-.466.198-.814.202l-7.062.864h-.008c-.82,0-1.499.64-1.548,1.498l-.036,5.955c-.005,1.045.841,1.9,1.886,1.907l.73.005,1.509-1.491-2.229-.014c-.219,0-.396-.181-.396-.398l.036-5.954,7.203-.878h.021c.521,0,1.032-.142,1.479-.41l6.919-4.148c.218-.131.454-.196.719-.197l8.744.052c-.012,1.127-.126,2.229-.306,3.309l-11.015-.066-2.441,1.485,13.152.079c-.6,2.483-1.614,4.805-2.994,6.87l-11.195-.068c-.166-.306-.36-.597-.612-.852-.696-.705-1.627-1.097-2.618-1.103h-.022c-2.037,0-3.7,1.65-3.712,3.689-.006.992.375,1.927,1.071,2.632.042.043.093.074.137.114l-6.079-.037-1.509,1.491,18.552.112c-3.41,2.275-7.5,3.607-11.897,3.607-11.855,0-21.5-9.645-21.5-21.5,0-3.013.629-5.881,1.753-8.486l-1.076-1.283c-1.394,2.966-2.177,6.275-2.177,9.769,0,12.703,10.297,23,23,23s23-10.297,23-23S35.703,0,23,0Zm4.991,38.178c-.418.412-.97.639-1.556.639h-.013c-.591-.004-1.146-.237-1.561-.657-.415-.421-.643-.978-.639-1.568s.237-1.146.657-1.561c.417-.412.969-.639,1.555-.639h.013c.592.004,1.146.237,1.562.657s.643.977.639,1.567c-.004.592-.237,1.146-.657,1.562Zm8.874,1.228l-7.958-.048c.044-.04.095-.07.138-.112.706-.697,1.098-1.628,1.104-2.619,0-.094-.019-.185-.025-.278l9.657.058c-.874,1.091-1.848,2.096-2.915,2.998Z"/><path class="cls-1" d="m14.516,25.948l.184.046.184-.046c5.346-1.353,9.079-6.144,9.079-11.652v-7.171h-3.461c-2.156,0-4.111-1.109-5.23-2.966h-1.285c-1.119,1.857-3.074,2.966-5.23,2.966h-3.318v7.171c0,5.509,3.733,10.3,9.079,11.652ZM6.937,8.625h1.818c2.312,0,4.438-1.021,5.873-2.779,1.436,1.758,3.562,2.779,5.873,2.779h1.961v5.671c0,4.757-3.183,8.904-7.763,10.149-4.58-1.245-7.763-5.391-7.763-10.149v-5.671Z"/><path class="cls-1" d="m11.095,18.888c-.1.31.011.648.274.838.263.191.619.189.882-.001l2.672-1.951,2.671,1.951c.132.096.287.145.442.145.154,0,.309-.047.439-.143.264-.19.374-.529.274-.838l-1.022-3.162,2.676-1.952c.262-.191.371-.53.271-.838s-.389-.518-.713-.518h-3.304l-1.021-3.158c-.101-.31-.389-.52-.714-.52s-.613.209-.714.519l-1.021,3.158h-3.304c-.324,0-.612.209-.713.518s.009.647.271.838l2.676,1.952-1.022,3.162Zm.587-5.112h2.476l.765-2.365.765,2.365h2.476l-2.003,1.461.765,2.366-2.003-1.462-2.003,1.462.765-2.366-2.003-1.461Z"/></svg>