<?xml version="1.0" encoding="UTF-8"?><svg id="Layer_1" xmlns="http://www.w3.org/2000/svg" viewBox="0 0 46 46"><defs><style>.cls-1{fill:#002eff;}</style></defs><path class="cls-1" d="m35.165,27.565c-2.171,0-3.938,1.767-3.938,3.938s1.767,3.938,3.938,3.938,3.938-1.767,3.938-3.938V13.894l-14.919,5.489v13.678c-.673-.536-1.513-.87-2.438-.87-2.171,0-3.938,1.767-3.938,3.938s1.767,3.938,3.938,3.938,3.938-1.767,3.938-3.938v-11.386l11.919-4.386v8.078c-.673-.536-1.513-.87-2.438-.87Zm0,6.376c-1.344,0-2.438-1.094-2.438-2.438s1.093-2.438,2.438-2.438,2.438,1.094,2.438,2.438-1.094,2.438-2.438,2.438Zm-13.419,4.625c-1.344,0-2.438-1.093-2.438-2.438s1.094-2.438,2.438-2.438,2.438,1.094,2.438,2.438-1.094,2.438-2.438,2.438Zm3.938-15.422v-2.715l11.919-4.386v2.715l-11.919,4.386Zm-18.228,1.839c.255.142.538.212.82.212.311,0,.621-.085.893-.255l13.593-8.467c.498-.311.795-.846.795-1.433s-.297-1.123-.796-1.434L9.168,5.142c-.521-.324-1.176-.341-1.713-.043-.536.298-.869.864-.869,1.477v16.931c0,.613.333,1.179.869,1.477Zm.631-18.408c0-.092.053-.141.098-.166.024-.014.056-.025.092-.025.03,0,.064.008.099.03l13.592,8.464c.074.046.089.113.089.161,0,.048-.016.114-.089.16l-13.592,8.466c-.079.049-.146.03-.192.005-.044-.024-.097-.073-.097-.165V6.576ZM23,0c-3.353,0-6.534.723-9.407,2.013l1.144,1.144c2.546-1.064,5.336-1.656,8.263-1.656,11.855,0,21.5,9.645,21.5,21.5s-9.645,21.5-21.5,21.5S1.5,34.855,1.5,23c0-2.746.537-5.365,1.48-7.782l-1.172-1.172c-1.164,2.752-1.808,5.778-1.808,8.954,0,12.703,10.297,23,23,23s23-10.297,23-23S35.703,0,23,0Z"/></svg>